<?xml version="1.0" standalone="no"?>
<!DOCTYPE svg PUBLIC "-//W3C//DTD SVG 20010904//EN"
 "http://www.w3.org/TR/2001/REC-SVG-20010904/DTD/svg10.dtd">
<svg version="1.0" xmlns="http://www.w3.org/2000/svg"
 width="900.000000pt" height="900.000000pt" viewBox="0 0 900.000000 900.000000"
 preserveAspectRatio="xMidYMid meet">
<metadata>
Created by potrace 1.11, written by Peter Selinger 2001-2013
</metadata>
<g transform="translate(0.000000,900.000000) scale(0.100000,-0.100000)"
fill="#000000" stroke="none">
<path d="M732 7890 c39 -74 74 -139 78 -145 4 -5 38 -68 75 -140 71 -136 119
-225 165 -310 15 -27 53 -99 85 -160 32 -60 70 -132 85 -160 15 -27 48 -88 72
-135 25 -47 63 -119 85 -160 22 -41 61 -113 85 -160 25 -47 61 -114 80 -150
20 -36 75 -139 123 -230 151 -286 177 -333 210 -395 35 -64 90 -167 163 -305
78 -149 179 -339 279 -525 39 -71 94 -175 123 -230 29 -55 83 -156 120 -225
37 -69 91 -170 120 -225 29 -55 65 -122 80 -150 15 -27 53 -99 85 -160 32 -60
70 -132 85 -160 15 -27 51 -95 80 -150 29 -55 69 -131 90 -170 65 -120 185
-345 250 -470 35 -66 71 -133 81 -150 10 -16 34 -61 53 -100 20 -38 54 -103
76 -143 22 -41 72 -135 111 -210 40 -76 75 -141 79 -145 8 -9 34 36 145 248
32 61 88 166 125 235 37 69 89 168 117 220 28 52 74 140 104 195 93 176 88
147 41 239 -23 45 -61 117 -85 161 -24 44 -72 134 -106 200 -35 66 -67 125
-71 130 -4 6 -42 78 -85 160 -43 83 -81 155 -85 160 -4 6 -38 69 -75 140 -37
72 -71 135 -75 140 -4 6 -42 78 -85 160 -43 83 -81 155 -85 160 -4 6 -34 62
-67 125 -33 63 -72 135 -85 160 -14 25 -47 86 -73 135 -26 50 -64 122 -85 160
-21 39 -61 115 -90 170 -29 55 -64 120 -78 145 -13 25 -49 92 -80 150 -30 58
-83 157 -117 220 -34 63 -84 156 -110 205 -26 50 -60 113 -75 140 -15 28 -53
100 -85 160 -32 61 -72 137 -90 170 -18 33 -104 193 -190 355 -195 367 -225
423 -312 585 -39 72 -96 180 -128 240 -32 61 -62 114 -67 120 -5 6 -215 10
-572 10 l-564 0 70 -135z"/>
<path d="M3140 7955 c20 -38 61 -115 90 -170 29 -55 71 -134 93 -175 81 -153
126 -238 177 -335 29 -55 89 -167 133 -250 44 -82 101 -190 127 -240 100 -190
244 -463 275 -520 18 -33 58 -109 90 -170 32 -60 75 -141 95 -180 21 -38 57
-108 82 -155 25 -47 75 -142 112 -212 37 -71 69 -128 71 -128 3 0 32 53 155
285 24 44 59 109 78 145 19 36 68 128 110 205 355 665 458 857 482 900 15 28
56 104 91 170 34 66 73 138 85 160 12 22 35 65 51 95 15 30 44 84 64 120 20
36 60 110 89 165 29 55 65 123 80 150 33 61 110 206 110 208 0 1 -625 2 -1389
2 l-1388 0 37 -70z"/>
<path d="M6206 8010 c-7 -8 -36 -58 -63 -110 -28 -52 -72 -135 -98 -185 -50
-95 -175 -329 -230 -430 -66 -122 -165 -312 -165 -316 0 -3 228 -5 508 -5 578
0 526 11 466 -96 -20 -35 -51 -90 -69 -123 -45 -83 -281 -518 -318 -585 -16
-30 -58 -108 -94 -172 -35 -65 -64 -121 -64 -125 0 -4 -6 -15 -13 -23 -7 -8
-37 -60 -66 -115 -29 -55 -74 -138 -100 -185 -26 -47 -65 -119 -87 -160 -23
-41 -110 -201 -193 -355 -84 -154 -167 -307 -185 -340 -18 -33 -46 -85 -62
-115 -17 -30 -104 -190 -193 -355 -89 -165 -175 -322 -190 -350 -15 -27 -41
-75 -58 -105 -16 -30 -85 -156 -152 -280 -113 -206 -155 -285 -215 -395 -126
-234 -361 -666 -375 -690 -10 -16 -36 -64 -58 -105 -39 -73 -60 -113 -160
-295 l-50 -90 56 -105 c30 -58 71 -136 92 -175 21 -38 59 -110 85 -160 26 -49
62 -117 80 -150 45 -83 107 -199 178 -335 67 -128 87 -160 87 -142 0 10 83
170 285 547 61 114 105 196 162 305 28 52 107 201 175 330 69 129 146 273 171
321 24 47 63 119 85 160 35 66 387 728 497 934 157 296 281 529 335 630 21 39
59 111 85 160 26 50 60 113 75 140 15 28 55 104 90 170 34 66 77 147 95 180
52 97 312 586 415 780 29 55 109 206 178 335 69 129 140 262 157 295 82 154
170 320 245 460 20 39 58 108 82 155 70 131 216 406 263 495 44 82 166 311
250 470 109 204 165 312 165 316 0 2 -471 4 -1046 4 -917 0 -1047 -2 -1058
-15z"/>
</g>
</svg>
